<svg width="16" height="19" viewBox="0 0 16 19" fill="none" xmlns="http://www.w3.org/2000/svg">
<path d="M5.1875 5.25V7.5H10.8125V5.25C10.8125 3.70312 9.54688 2.4375 8 2.4375C6.41797 2.4375 5.1875 3.70312 5.1875 5.25ZM3.5 7.5V5.25C3.5 2.78906 5.50391 0.75 8 0.75C10.4609 0.75 12.5 2.78906 12.5 5.25V7.5H13.625C14.8555 7.5 15.875 8.51953 15.875 9.75V16.5C15.875 17.7656 14.8555 18.75 13.625 18.75H2.375C1.10938 18.75 0.125 17.7656 0.125 16.5V9.75C0.125 8.51953 1.10938 7.5 2.375 7.5H3.5ZM1.8125 9.75V16.5C1.8125 16.8164 2.05859 17.0625 2.375 17.0625H13.625C13.9062 17.0625 14.1875 16.8164 14.1875 16.5V9.75C14.1875 9.46875 13.9062 9.1875 13.625 9.1875H2.375C2.05859 9.1875 1.8125 9.46875 1.8125 9.75Z" fill="#005399"/>
</svg>
