<svg width="16" height="19" viewBox="0 0 16 19" fill="none" xmlns="http://www.w3.org/2000/svg">
<path d="M10.8125 5.25C10.8125 4.26562 10.25 3.35156 9.40625 2.82422C8.52734 2.33203 7.4375 2.33203 6.59375 2.82422C5.71484 3.35156 5.1875 4.26562 5.1875 5.25C5.1875 6.26953 5.71484 7.18359 6.59375 7.71094C7.4375 8.20312 8.52734 8.20312 9.40625 7.71094C10.25 7.18359 10.8125 6.26953 10.8125 5.25ZM3.5 5.25C3.5 3.66797 4.34375 2.19141 5.75 1.38281C7.12109 0.574219 8.84375 0.574219 10.25 1.38281C11.6211 2.19141 12.5 3.66797 12.5 5.25C12.5 6.86719 11.6211 8.34375 10.25 9.15234C8.84375 9.96094 7.12109 9.96094 5.75 9.15234C4.34375 8.34375 3.5 6.86719 3.5 5.25ZM1.84766 17.0625H14.1172C13.8008 14.8477 11.9023 13.125 9.58203 13.125H6.38281C4.0625 13.125 2.16406 14.8477 1.84766 17.0625ZM0.125 17.7305C0.125 14.25 2.90234 11.4375 6.38281 11.4375H9.58203C13.0625 11.4375 15.875 14.25 15.875 17.7305C15.875 18.293 15.3828 18.75 14.8203 18.75H1.14453C0.582031 18.75 0.125 18.293 0.125 17.7305Z" fill="#005399"/>
</svg>
