<svg width="16" height="19" viewBox="0 0 16 19" fill="none" xmlns="http://www.w3.org/2000/svg">
<path d="M8 2.4375C6.98047 2.4375 6.06641 3 5.53906 3.84375C5.04688 4.72266 5.04688 5.8125 5.53906 6.65625C6.06641 7.53516 6.98047 8.0625 8 8.0625C8.98438 8.0625 9.89844 7.53516 10.4258 6.65625C10.918 5.8125 10.918 4.72266 10.4258 3.84375C9.89844 3 8.98438 2.4375 8 2.4375ZM3.5 5.25C3.5 3.66797 4.34375 2.19141 5.75 1.38281C7.12109 0.574219 8.84375 0.574219 10.25 1.38281C11.6211 2.19141 12.5 3.66797 12.5 5.25C12.5 6.86719 11.6211 8.34375 10.25 9.15234C8.84375 9.96094 7.12109 9.96094 5.75 9.15234C4.34375 8.34375 3.5 6.86719 3.5 5.25ZM5.75 13.1602V14.918C6.55859 15.1641 7.15625 15.9023 7.15625 16.7812C7.15625 17.8711 6.24219 18.75 5.1875 18.75C4.09766 18.75 3.21875 17.8711 3.21875 16.7812C3.21875 15.9023 3.78125 15.1641 4.625 14.918V13.4766C2.97266 14.1445 1.8125 15.7617 1.8125 17.625V17.9062C1.8125 18.3984 1.42578 18.75 0.96875 18.75C0.476562 18.75 0.125 18.3984 0.125 17.9062V17.625C0.125 14.2148 2.86719 11.4375 6.3125 11.4375H9.6875C13.0977 11.4375 15.875 14.2148 15.875 17.625V17.9062C15.875 18.3984 15.4883 18.75 15.0312 18.75C14.5391 18.75 14.1875 18.3984 14.1875 17.9062V17.625C14.1875 15.7617 12.9922 14.1445 11.375 13.4766V14.8828C12.3242 15.1641 13.0625 16.043 13.0625 17.0625V18.1875C13.0625 18.5039 12.7812 18.75 12.5 18.75H11.6562C11.3398 18.75 11.0938 18.5039 11.0938 18.1875C11.0938 17.9062 11.3398 17.625 11.6562 17.625H11.9375V17.0625C11.9375 16.4648 11.4102 15.9375 10.8125 15.9375C10.1797 15.9375 9.6875 16.4648 9.6875 17.0625V17.625H9.96875C10.25 17.625 10.5312 17.9062 10.5312 18.1875C10.5312 18.5039 10.25 18.75 9.96875 18.75H9.125C8.80859 18.75 8.5625 18.5039 8.5625 18.1875V17.0625C8.5625 16.043 9.26562 15.1641 10.25 14.8828V13.1602C10.0391 13.1602 9.86328 13.125 9.6875 13.125H6.3125C6.10156 13.125 5.92578 13.1602 5.75 13.1602ZM5.1875 15.9375C4.69531 15.9375 4.34375 16.3242 4.34375 16.7812C4.34375 17.2734 4.69531 17.625 5.1875 17.625C5.64453 17.625 6.03125 17.2734 6.03125 16.7812C6.03125 16.3242 5.64453 15.9375 5.1875 15.9375Z" fill="#005399"/>
</svg>
