<svg width="22" height="17" viewBox="0 0 22 17" fill="none" xmlns="http://www.w3.org/2000/svg">
<path d="M18.875 2.5625H3.125C2.80859 2.5625 2.5625 2.84375 2.5625 3.125V4.25H19.4375V3.125C19.4375 2.84375 19.1562 2.5625 18.875 2.5625ZM19.4375 7.625H2.5625V14.375C2.5625 14.6914 2.80859 14.9375 3.125 14.9375H18.875C19.1562 14.9375 19.4375 14.6914 19.4375 14.375V7.625ZM3.125 0.875H18.875C20.1055 0.875 21.125 1.89453 21.125 3.125V14.375C21.125 15.6406 20.1055 16.625 18.875 16.625H3.125C1.85938 16.625 0.875 15.6406 0.875 14.375V3.125C0.875 1.89453 1.85938 0.875 3.125 0.875ZM5.09375 11.5625H6.78125C7.23828 11.5625 7.625 11.9492 7.625 12.4062C7.625 12.8984 7.23828 13.25 6.78125 13.25H5.09375C4.60156 13.25 4.25 12.8984 4.25 12.4062C4.25 11.9492 4.60156 11.5625 5.09375 11.5625ZM9.59375 11.5625H13.5312C13.9883 11.5625 14.375 11.9492 14.375 12.4062C14.375 12.8984 13.9883 13.25 13.5312 13.25H9.59375C9.10156 13.25 8.75 12.8984 8.75 12.4062C8.75 11.9492 9.10156 11.5625 9.59375 11.5625Z" fill="#005399"/>
</svg>
