<svg width="13" height="15" viewBox="0 0 13 15" fill="none" xmlns="http://www.w3.org/2000/svg">
<path d="M6.5 1.62402C5.70703 1.62402 4.99609 2.06152 4.58594 2.71777C4.20312 3.40137 4.20312 4.24902 4.58594 4.90527C4.99609 5.58887 5.70703 5.99902 6.5 5.99902C7.26562 5.99902 7.97656 5.58887 8.38672 4.90527C8.76953 4.24902 8.76953 3.40137 8.38672 2.71777C7.97656 2.06152 7.26562 1.62402 6.5 1.62402ZM3 3.81152C3 2.58105 3.65625 1.43262 4.75 0.803711C5.81641 0.174805 7.15625 0.174805 8.25 0.803711C9.31641 1.43262 10 2.58105 10 3.81152C10 5.06934 9.31641 6.21777 8.25 6.84668C7.15625 7.47559 5.81641 7.47559 4.75 6.84668C3.65625 6.21777 3 5.06934 3 3.81152ZM4.75 9.96387V11.3311C5.37891 11.5225 5.84375 12.0967 5.84375 12.7803C5.84375 13.6279 5.13281 14.3115 4.3125 14.3115C3.46484 14.3115 2.78125 13.6279 2.78125 12.7803C2.78125 12.0967 3.21875 11.5225 3.875 11.3311V10.21C2.58984 10.7295 1.6875 11.9873 1.6875 13.4365V13.6553C1.6875 14.0381 1.38672 14.3115 1.03125 14.3115C0.648438 14.3115 0.375 14.0381 0.375 13.6553V13.4365C0.375 10.7842 2.50781 8.62402 5.1875 8.62402H7.8125C10.4648 8.62402 12.625 10.7842 12.625 13.4365V13.6553C12.625 14.0381 12.3242 14.3115 11.9688 14.3115C11.5859 14.3115 11.3125 14.0381 11.3125 13.6553V13.4365C11.3125 11.9873 10.3828 10.7295 9.125 10.21V11.3037C9.86328 11.5225 10.4375 12.2061 10.4375 12.999V13.874C10.4375 14.1201 10.2188 14.3115 10 14.3115H9.34375C9.09766 14.3115 8.90625 14.1201 8.90625 13.874C8.90625 13.6553 9.09766 13.4365 9.34375 13.4365H9.5625V12.999C9.5625 12.5342 9.15234 12.124 8.6875 12.124C8.19531 12.124 7.8125 12.5342 7.8125 12.999V13.4365H8.03125C8.25 13.4365 8.46875 13.6553 8.46875 13.874C8.46875 14.1201 8.25 14.3115 8.03125 14.3115H7.375C7.12891 14.3115 6.9375 14.1201 6.9375 13.874V12.999C6.9375 12.2061 7.48438 11.5225 8.25 11.3037V9.96387C8.08594 9.96387 7.94922 9.93652 7.8125 9.93652H5.1875C5.02344 9.93652 4.88672 9.96387 4.75 9.96387ZM4.3125 12.124C3.92969 12.124 3.65625 12.4248 3.65625 12.7803C3.65625 13.1631 3.92969 13.4365 4.3125 13.4365C4.66797 13.4365 4.96875 13.1631 4.96875 12.7803C4.96875 12.4248 4.66797 12.124 4.3125 12.124Z" fill="#009BDF"/>
</svg>
