<svg width="13" height="15" viewBox="0 0 13 15" fill="none" xmlns="http://www.w3.org/2000/svg">
<path d="M8.6875 3.81152C8.6875 3.0459 8.25 2.33496 7.59375 1.9248C6.91016 1.54199 6.0625 1.54199 5.40625 1.9248C4.72266 2.33496 4.3125 3.0459 4.3125 3.81152C4.3125 4.60449 4.72266 5.31543 5.40625 5.72559C6.0625 6.1084 6.91016 6.1084 7.59375 5.72559C8.25 5.31543 8.6875 4.60449 8.6875 3.81152ZM3 3.81152C3 2.58105 3.65625 1.43262 4.75 0.803711C5.81641 0.174805 7.15625 0.174805 8.25 0.803711C9.31641 1.43262 10 2.58105 10 3.81152C10 5.06934 9.31641 6.21777 8.25 6.84668C7.15625 7.47559 5.81641 7.47559 4.75 6.84668C3.65625 6.21777 3 5.06934 3 3.81152ZM1.71484 12.999H11.2578C11.0117 11.2764 9.53516 9.93652 7.73047 9.93652H5.24219C3.4375 9.93652 1.96094 11.2764 1.71484 12.999ZM0.375 13.5186C0.375 10.8115 2.53516 8.62402 5.24219 8.62402H7.73047C10.4375 8.62402 12.625 10.8115 12.625 13.5186C12.625 13.9561 12.2422 14.3115 11.8047 14.3115H1.16797C0.730469 14.3115 0.375 13.9561 0.375 13.5186Z" fill="#009BDF"/>
</svg>
