<svg width="27" height="24" viewBox="0 0 27 24" fill="none" xmlns="http://www.w3.org/2000/svg">
<path d="M13.5 2.25C9.98438 2.25 6.79688 4.125 5.01562 7.125C3.28125 10.1719 3.28125 13.875 5.01562 16.875C6.79688 19.9219 9.98438 21.75 13.5 21.75C16.9688 21.75 20.1562 19.9219 21.9375 16.875C23.6719 13.875 23.6719 10.1719 21.9375 7.125C20.1562 4.125 16.9688 2.25 13.5 2.25ZM13.5 24C9.1875 24 5.25 21.75 3.09375 18C0.9375 14.2969 0.9375 9.75 3.09375 6C5.25 2.29688 9.1875 0 13.5 0C17.7656 0 21.7031 2.29688 23.8594 6C26.0156 9.75 26.0156 14.2969 23.8594 18C21.7031 21.75 17.7656 24 13.5 24ZM13.5 6C14.1094 6 14.625 6.51562 14.625 7.125V12.375C14.625 13.0312 14.1094 13.5 13.5 13.5C12.8438 13.5 12.375 13.0312 12.375 12.375V7.125C12.375 6.51562 12.8438 6 13.5 6ZM15 16.5C15 17.3438 14.2969 18 13.5 18C12.6562 18 12 17.3438 12 16.5C12 15.7031 12.6562 15 13.5 15C14.2969 15 15 15.7031 15 16.5Z" fill="#DB5656"/>
</svg>
