<svg width="18" height="17" viewBox="0 0 18 17" fill="none" xmlns="http://www.w3.org/2000/svg">
<path d="M9 2C6.65625 2 4.53125 3.25 3.34375 5.25C2.1875 7.28125 2.1875 9.75 3.34375 11.75C4.53125 13.7812 6.65625 15 9 15C11.3125 15 13.4375 13.7812 14.625 11.75C15.7812 9.75 15.7812 7.28125 14.625 5.25C13.4375 3.25 11.3125 2 9 2ZM9 16.5C6.125 16.5 3.5 15 2.0625 12.5C0.625 10.0312 0.625 7 2.0625 4.5C3.5 2.03125 6.125 0.5 9 0.5C11.8438 0.5 14.4688 2.03125 15.9062 4.5C17.3438 7 17.3438 10.0312 15.9062 12.5C14.4688 15 11.8438 16.5 9 16.5ZM6.46875 5.96875C6.75 5.6875 7.21875 5.6875 7.5 5.96875L8.96875 7.4375L10.4375 5.96875C10.75 5.6875 11.2188 5.6875 11.5 5.96875C11.8125 6.28125 11.8125 6.75 11.5 7.03125L10.0312 8.5L11.5 9.96875C11.8125 10.2812 11.8125 10.75 11.5 11.0312C11.2188 11.3438 10.75 11.3438 10.4375 11.0312L8.96875 9.5625L7.5 11.0312C7.21875 11.3438 6.75 11.3438 6.46875 11.0312C6.15625 10.75 6.15625 10.2812 6.46875 9.96875L7.9375 8.5L6.46875 7.03125C6.15625 6.75 6.15625 6.28125 6.46875 5.96875Z" fill="#84888C"/>
</svg>
