<svg width="16" height="19" viewBox="0 0 16 19" fill="none" xmlns="http://www.w3.org/2000/svg">
<path d="M6.22266 1.9375C6.11719 1.9375 6.04688 2.00781 5.97656 2.07812L5.30859 3.0625H10.4062L9.73828 2.07812C9.70312 2.00781 9.59766 1.9375 9.49219 1.9375H6.22266ZM12.4453 3.0625H12.9023H14.625H14.9062C15.3633 3.0625 15.75 3.44922 15.75 3.90625C15.75 4.39844 15.3633 4.75 14.9062 4.75H14.4844L13.6406 16.1758C13.5352 17.3711 12.5859 18.25 11.3906 18.25H4.32422C3.12891 18.25 2.17969 17.3711 2.07422 16.1758L1.23047 4.75H0.84375C0.351562 4.75 0 4.39844 0 3.90625C0 3.44922 0.351562 3.0625 0.84375 3.0625H1.125H2.8125H3.26953L4.57031 1.12891C4.92188 0.601562 5.55469 0.25 6.22266 0.25H9.49219C10.1602 0.25 10.793 0.601562 11.1445 1.12891L12.4453 3.0625ZM12.7969 4.75H2.91797L3.76172 16.0703C3.79688 16.3516 4.04297 16.5625 4.32422 16.5625H11.3906C11.6719 16.5625 11.918 16.3516 11.9531 16.0703L12.7969 4.75Z" fill="#DB5656"/>
</svg>
