<svg width="21" height="18" viewBox="0 0 21 18" fill="none" xmlns="http://www.w3.org/2000/svg">
<path d="M1.6875 1.1875L5.1875 3.90625C6.59375 2.84375 8.34375 2 10.5 2C13 2 15.0312 3.15625 16.5 4.53125C17.9688 5.875 18.9375 7.5 19.4062 8.625C19.5 8.875 19.5 9.15625 19.4062 9.40625C19 10.4062 18.1562 11.8438 16.9062 13.0938L20.1875 15.6875C20.5312 15.9375 20.5938 16.4062 20.3125 16.7188C20.0625 17.0625 19.5938 17.125 19.2812 16.8438L0.78125 2.34375C0.4375 2.09375 0.375 1.625 0.65625 1.3125C0.90625 0.96875 1.375 0.90625 1.6875 1.1875ZM6.40625 4.875L7.84375 6C8.5625 5.375 9.46875 5 10.5 5C12.6875 5 14.5 6.8125 14.5 9C14.5 9.6875 14.3438 10.3125 14.0312 10.8438L15.7188 12.1562C16.8125 11.0938 17.5625 9.875 17.9375 9C17.5312 8.0625 16.6875 6.75 15.4688 5.625C14.1875 4.4375 12.5312 3.5 10.5 3.5C8.90625 3.5 7.5625 4.0625 6.40625 4.875ZM12.8125 9.90625C12.9375 9.625 13 9.3125 13 9C13 7.625 11.875 6.5 10.5 6.5C10.4688 6.5 10.4375 6.5 10.4375 6.5C10.4688 6.6875 10.5 6.84375 10.5 7C10.5 7.34375 10.4062 7.625 10.2812 7.90625L12.8125 9.90625ZM13.125 13.9688L14.4375 15C13.2812 15.625 11.9688 16 10.5 16C7.96875 16 5.9375 14.875 4.46875 13.5C3 12.125 2.03125 10.5 1.5625 9.40625C1.46875 9.15625 1.46875 8.875 1.5625 8.625C1.875 7.90625 2.375 7 3.09375 6.0625L4.25 7C3.6875 7.71875 3.28125 8.4375 3.03125 9C3.46875 9.9375 4.28125 11.2812 5.5 12.4062C6.78125 13.5938 8.4375 14.5 10.5 14.5C11.4375 14.5 12.3125 14.3125 13.125 13.9688ZM6.5 9H6.46875C6.46875 8.9375 6.5 8.84375 6.5 8.75L8.25 10.125C8.5625 10.7812 9.1875 11.2812 9.9375 11.4375L11.6875 12.8438C11.3125 12.9375 10.9062 13 10.5 13C8.28125 13 6.5 11.2188 6.5 9Z" fill="#4E5053"/>
</svg>
