<svg width="17" height="16" viewBox="0 0 17 16" fill="none" xmlns="http://www.w3.org/2000/svg">
<path d="M8.5 1.5C6.15625 1.5 4.03125 2.75 2.84375 4.75C1.6875 6.78125 1.6875 9.25 2.84375 11.25C4.03125 13.2812 6.15625 14.5 8.5 14.5C10.8125 14.5 12.9375 13.2812 14.125 11.25C15.2812 9.25 15.2812 6.78125 14.125 4.75C12.9375 2.75 10.8125 1.5 8.5 1.5ZM8.5 16C5.625 16 3 14.5 1.5625 12C0.125 9.53125 0.125 6.5 1.5625 4C3 1.53125 5.625 0 8.5 0C11.3438 0 13.9688 1.53125 15.4062 4C16.8438 6.5 16.8438 9.53125 15.4062 12C13.9688 14.5 11.3438 16 8.5 16ZM7.25 10.5H8V8.5H7.25C6.8125 8.5 6.5 8.1875 6.5 7.75C6.5 7.34375 6.8125 7 7.25 7H8.75C9.15625 7 9.5 7.34375 9.5 7.75V10.5H9.75C10.1562 10.5 10.5 10.8438 10.5 11.25C10.5 11.6875 10.1562 12 9.75 12H7.25C6.8125 12 6.5 11.6875 6.5 11.25C6.5 10.8438 6.8125 10.5 7.25 10.5ZM8.5 6C7.9375 6 7.5 5.5625 7.5 5C7.5 4.46875 7.9375 4 8.5 4C9.03125 4 9.5 4.46875 9.5 5C9.5 5.5625 9.03125 6 8.5 6Z" fill="#009BDF"/>
</svg>
