<svg width="152" height="59" viewBox="0 0 152 59" fill="none" xmlns="http://www.w3.org/2000/svg">
<path d="M8.71741 58.1323H0V12.209H8.71741V58.1323Z" fill="#005399"/>
<path d="M29.6493 58.8728C20.1394 58.8728 14.5259 53.0089 14.5259 44.6761V26.3438H23.2433V44.923C23.2433 46.713 23.9037 50.972 29.6493 50.972C33.4796 50.972 36.2534 48.4413 36.2534 44.923V26.3438H44.9708V44.6761C44.9708 52.762 38.895 58.8728 29.6493 58.8728Z" fill="#005399"/>
<path d="M102.162 58.1328H93.4446V39.5536C93.4446 37.7635 92.7842 33.5045 87.0386 33.5045C83.2082 33.5045 80.4345 35.9735 80.4345 39.5536V58.1328H71.7171V39.5536C71.7171 37.7635 71.1227 33.5045 65.3772 33.5045C61.4808 33.5045 58.7731 35.9735 58.7731 39.5536V58.1328H50.0557V39.7387C50.0557 31.6528 56.0654 25.542 65.3772 25.542C70 25.542 73.7644 27.2703 76.2079 30.0479C78.7835 27.2703 82.6139 25.542 87.0386 25.542C96.5485 25.542 102.162 31.4059 102.162 39.7387V58.1328Z" fill="#005399"/>
<path d="M116.77 58.1321H108.053V26.3438H116.77V58.1321Z" fill="#005399"/>
<path d="M137.56 26.4675V33.6893H131.418V58.1941H122.701V26.8378C122.701 18.3815 128.116 12.0856 137.89 13.1349V20.7888C133.73 20.4802 131.484 22.085 131.418 26.4675H137.56Z" fill="#005399"/>
<path d="M151.468 58.1321H142.751V26.3438H151.468V58.1321Z" fill="#005399"/>
<path d="M112.412 23.079C115.113 23.079 117.302 21.0326 117.302 18.5082C117.302 15.9839 115.113 13.9375 112.412 13.9375C109.711 13.9375 107.521 15.9839 107.521 18.5082C107.521 21.0326 109.711 23.079 112.412 23.079Z" fill="#009BDF"/>
<path d="M147.11 23.079C149.81 23.079 152 21.0326 152 18.5082C152 15.9839 149.81 13.9375 147.11 13.9375C144.409 13.9375 142.219 15.9839 142.219 18.5082C142.219 21.0326 144.409 23.079 147.11 23.079Z" fill="#009BDF"/>
<path d="M143.217 12.4839C144.353 11.8388 145.687 11.4685 147.11 11.4685C147.622 11.4685 148.123 11.5179 148.609 11.6105C145.551 4.79603 138.343 0 129.956 0C121.568 0 114.406 4.76516 111.332 11.5426C111.685 11.4963 112.045 11.4685 112.412 11.4685C113.96 11.4685 115.4 11.9067 116.599 12.6598C119.056 8.08597 124.118 4.93799 129.956 4.93799C135.794 4.93799 140.727 8.00572 143.217 12.4839Z" fill="#F2BE1A"/>
</svg>
