<svg width="464" height="224" viewBox="0 0 464 224" fill="none" xmlns="http://www.w3.org/2000/svg">
<g clip-path="url(#clip0_22_40)">
<path d="M5.87 223.64H0V206.33H5.98C7.7 206.33 9.18 206.68 10.41 207.37C11.65 208.06 12.6 209.05 13.26 210.34C13.93 211.63 14.26 213.17 14.26 214.97C14.26 216.77 13.93 218.32 13.26 219.62C12.59 220.92 11.63 221.91 10.38 222.6C9.13 223.29 7.62 223.64 5.86 223.64H5.87ZM3.14 220.93H5.72C6.93 220.93 7.93 220.71 8.74 220.27C9.55 219.83 10.15 219.17 10.56 218.28C10.97 217.4 11.17 216.29 11.17 214.97C11.17 213.65 10.97 212.55 10.56 211.67C10.15 210.79 9.56 210.14 8.76 209.7C7.97 209.26 6.99 209.04 5.81 209.04H3.14V220.92V220.93Z" fill="#58595B"/>
<path d="M18.43 223.64V206.33H29.69V208.96H21.57V213.66H29.11V216.29H21.57V221.01H29.76V223.64H18.43Z" fill="#58595B"/>
<path d="M48.31 206.33V223.64H45.52L37.36 211.85H37.22V223.64H34.08V206.33H36.89L45.04 218.13H45.19V206.33H48.31Z" fill="#58595B"/>
<path d="M52.14 208.96V206.33H65.95V208.96H60.6V223.64H57.49V208.96H52.14Z" fill="#58595B"/>
<path d="M69.92 223.64H66.57L72.66 206.33H76.53L82.63 223.64H79.28L74.66 209.88H74.53L69.91 223.64H69.92ZM70.03 216.86H79.16V219.38H70.03V216.86Z" fill="#58595B"/>
<path d="M86.11 223.64V206.33H89.25V221.01H96.87V223.64H86.11Z" fill="#58595B"/>
<path d="M111.01 206.33V223.64H107.87V206.33H111.01Z" fill="#58595B"/>
<path d="M115.6 206.33H119.44L124.58 218.87H124.78L129.92 206.33H133.76V223.64H130.75V211.75H130.59L125.81 223.59H123.56L118.78 211.72H118.62V223.64H115.61V206.33H115.6Z" fill="#58595B"/>
<path d="M138.36 223.64V206.33H144.85C146.18 206.33 147.3 206.58 148.2 207.07C149.1 207.56 149.79 208.25 150.25 209.11C150.71 209.97 150.95 210.96 150.95 212.06C150.95 213.16 150.72 214.16 150.25 215.02C149.78 215.88 149.09 216.56 148.18 217.05C147.27 217.54 146.14 217.79 144.81 217.79H140.51V215.21H144.39C145.17 215.21 145.8 215.08 146.3 214.8C146.8 214.53 147.16 214.16 147.4 213.68C147.64 213.21 147.76 212.66 147.76 212.05C147.76 211.44 147.64 210.89 147.4 210.43C147.16 209.96 146.79 209.6 146.29 209.34C145.79 209.08 145.15 208.95 144.37 208.95H141.5V223.64H138.36Z" fill="#58595B"/>
<path d="M154.87 223.64V206.33H158.01V221.01H165.63V223.64H154.87Z" fill="#58595B"/>
<path d="M172.4 223.64H169.05L175.14 206.33H179.01L185.11 223.64H181.76L177.14 209.88H177.01L172.4 223.64ZM172.51 216.86H181.64V219.38H172.51V216.86Z" fill="#58595B"/>
<path d="M202.82 206.33V223.64H200.03L191.87 211.85H191.73V223.64H188.59V206.33H191.4L199.55 218.13H199.7V206.33H202.82Z" fill="#58595B"/>
<path d="M206.65 208.96V206.33H220.46V208.96H215.11V223.64H212V208.96H206.65Z" fill="#58595B"/>
<path d="M231.4 223.64V206.33H237.89C239.22 206.33 240.34 206.56 241.24 207.02C242.14 207.48 242.83 208.13 243.29 208.96C243.75 209.79 243.99 210.76 243.99 211.86C243.99 212.96 243.76 213.93 243.28 214.75C242.8 215.57 242.12 216.19 241.21 216.63C240.3 217.07 239.17 217.29 237.85 217.29H233.23V214.69H237.43C238.21 214.69 238.84 214.58 239.34 214.36C239.84 214.14 240.2 213.82 240.44 213.4C240.68 212.98 240.8 212.46 240.8 211.85C240.8 211.24 240.68 210.71 240.44 210.27C240.2 209.83 239.83 209.5 239.33 209.27C238.83 209.04 238.19 208.93 237.41 208.93H234.53V223.62H231.4V223.64ZM240.35 215.8L244.64 223.64H241.14L236.93 215.8H240.35Z" fill="#58595B"/>
<path d="M248.08 223.64V206.33H259.34V208.96H251.22V213.66H258.76V216.29H251.22V221.01H259.41V223.64H248.09H248.08Z" fill="#58595B"/>
<path d="M278.54 212.17H275.38C275.29 211.65 275.12 211.19 274.88 210.79C274.64 210.39 274.34 210.04 273.98 209.76C273.62 209.48 273.21 209.27 272.75 209.12C272.29 208.98 271.79 208.9 271.27 208.9C270.33 208.9 269.5 209.14 268.77 209.61C268.04 210.08 267.48 210.77 267.06 211.67C266.65 212.57 266.44 213.68 266.44 214.98C266.44 216.28 266.65 217.42 267.06 218.32C267.48 219.22 268.04 219.91 268.77 220.36C269.49 220.82 270.32 221.05 271.26 221.05C271.78 221.05 272.26 220.98 272.72 220.84C273.18 220.7 273.58 220.5 273.95 220.23C274.32 219.96 274.62 219.63 274.87 219.23C275.12 218.84 275.29 218.38 275.39 217.88L278.55 217.9C278.43 218.72 278.18 219.49 277.78 220.22C277.39 220.94 276.88 221.58 276.25 222.13C275.62 222.68 274.88 223.11 274.04 223.42C273.2 223.73 272.26 223.88 271.23 223.88C269.71 223.88 268.35 223.53 267.16 222.82C265.96 222.11 265.02 221.1 264.34 219.77C263.65 218.44 263.31 216.85 263.31 214.99C263.31 213.13 263.66 211.53 264.35 210.2C265.04 208.87 265.99 207.86 267.18 207.15C268.38 206.45 269.73 206.09 271.24 206.09C272.2 206.09 273.1 206.22 273.93 206.5C274.76 206.78 275.5 207.17 276.14 207.69C276.79 208.21 277.32 208.85 277.74 209.6C278.16 210.35 278.44 211.21 278.56 212.17H278.54Z" fill="#58595B"/>
<path d="M298.08 214.99C298.08 216.86 297.73 218.45 297.04 219.78C296.34 221.11 295.4 222.12 294.2 222.83C293 223.53 291.65 223.89 290.13 223.89C288.61 223.89 287.26 223.54 286.06 222.83C284.86 222.12 283.92 221.11 283.22 219.78C282.52 218.45 282.18 216.86 282.18 215C282.18 213.14 282.53 211.54 283.22 210.21C283.92 208.88 284.86 207.87 286.06 207.16C287.26 206.45 288.61 206.1 290.13 206.1C291.65 206.1 293 206.45 294.2 207.16C295.4 207.87 296.34 208.88 297.04 210.21C297.74 211.54 298.08 213.13 298.08 215V214.99ZM294.93 214.99C294.93 213.68 294.72 212.57 294.32 211.66C293.92 210.75 293.35 210.07 292.62 209.61C291.9 209.15 291.07 208.91 290.13 208.91C289.19 208.91 288.36 209.14 287.64 209.61C286.92 210.08 286.35 210.76 285.95 211.66C285.54 212.56 285.34 213.67 285.34 214.99C285.34 216.31 285.54 217.41 285.95 218.32C286.36 219.22 286.92 219.91 287.64 220.37C288.36 220.83 289.19 221.07 290.13 221.07C291.07 221.07 291.9 220.84 292.62 220.37C293.34 219.91 293.91 219.22 294.32 218.32C294.73 217.42 294.93 216.31 294.93 214.99Z" fill="#58595B"/>
<path d="M302.25 223.64V206.33H308.74C310.07 206.33 311.19 206.56 312.09 207.02C312.99 207.48 313.68 208.13 314.14 208.96C314.6 209.79 314.84 210.76 314.84 211.86C314.84 212.96 314.61 213.93 314.13 214.75C313.65 215.57 312.97 216.19 312.05 216.63C311.14 217.07 310.02 217.29 308.69 217.29H304.07V214.69H308.27C309.05 214.69 309.68 214.58 310.18 214.36C310.67 214.14 311.04 213.82 311.28 213.4C311.52 212.98 311.64 212.46 311.64 211.85C311.64 211.24 311.52 210.71 311.28 210.27C311.04 209.83 310.67 209.5 310.17 209.27C309.67 209.04 309.04 208.93 308.25 208.93H305.38V223.62H302.24L302.25 223.64ZM311.19 215.8L315.48 223.64H311.98L307.77 215.8H311.19Z" fill="#58595B"/>
<path d="M324.79 223.64H318.92V206.33H324.9C326.62 206.33 328.1 206.68 329.33 207.37C330.57 208.06 331.52 209.05 332.18 210.34C332.84 211.63 333.18 213.17 333.18 214.97C333.18 216.77 332.85 218.32 332.18 219.62C331.51 220.92 330.55 221.91 329.3 222.6C328.05 223.29 326.54 223.64 324.78 223.64H324.79ZM322.06 220.93H324.64C325.85 220.93 326.85 220.71 327.66 220.27C328.46 219.83 329.07 219.17 329.48 218.28C329.89 217.4 330.09 216.29 330.09 214.97C330.09 213.65 329.89 212.55 329.48 211.67C329.08 210.79 328.48 210.14 327.69 209.7C326.9 209.26 325.92 209.04 324.74 209.04H322.07V220.92L322.06 220.93Z" fill="#58595B"/>
<path d="M346.76 211.09C346.68 210.35 346.35 209.78 345.77 209.37C345.19 208.96 344.43 208.75 343.5 208.75C342.85 208.75 342.29 208.85 341.82 209.05C341.35 209.25 340.99 209.51 340.75 209.85C340.5 210.19 340.37 210.57 340.37 211.01C340.37 211.37 340.45 211.68 340.62 211.95C340.79 212.22 341.01 212.44 341.3 212.62C341.59 212.8 341.91 212.96 342.26 213.08C342.61 213.2 342.96 213.31 343.32 213.39L344.94 213.8C345.59 213.95 346.22 214.16 346.83 214.42C347.44 214.68 347.98 215.01 348.46 215.4C348.94 215.79 349.32 216.27 349.61 216.83C349.89 217.39 350.03 218.04 350.03 218.79C350.03 219.8 349.77 220.7 349.25 221.46C348.73 222.23 347.98 222.83 347.01 223.26C346.03 223.69 344.85 223.91 343.47 223.91C342.09 223.91 340.95 223.7 339.97 223.29C338.99 222.88 338.21 222.26 337.65 221.46C337.1 220.66 336.8 219.69 336.75 218.54H339.83C339.87 219.14 340.06 219.64 340.39 220.04C340.72 220.44 341.14 220.74 341.67 220.94C342.2 221.14 342.79 221.24 343.44 221.24C344.09 221.24 344.72 221.14 345.23 220.93C345.74 220.72 346.15 220.44 346.44 220.07C346.73 219.7 346.88 219.27 346.89 218.77C346.89 218.32 346.75 217.95 346.49 217.65C346.23 217.35 345.87 217.11 345.4 216.91C344.94 216.71 344.39 216.53 343.77 216.37L341.8 215.86C340.37 215.49 339.25 214.94 338.42 214.19C337.6 213.44 337.18 212.45 337.18 211.21C337.18 210.19 337.46 209.3 338.01 208.53C338.56 207.76 339.32 207.17 340.28 206.74C341.24 206.32 342.32 206.1 343.53 206.1C344.74 206.1 345.84 206.31 346.76 206.74C347.69 207.17 348.41 207.75 348.94 208.51C349.47 209.27 349.74 210.13 349.76 211.1H346.74L346.76 211.09Z" fill="#58595B"/>
<path d="M370.5 211.09C370.42 210.35 370.09 209.78 369.51 209.37C368.93 208.96 368.17 208.75 367.24 208.75C366.59 208.75 366.03 208.85 365.56 209.05C365.09 209.25 364.73 209.51 364.49 209.85C364.24 210.19 364.11 210.57 364.11 211.01C364.11 211.37 364.19 211.68 364.36 211.95C364.53 212.22 364.75 212.44 365.04 212.62C365.33 212.8 365.65 212.96 366 213.08C366.35 213.2 366.7 213.31 367.06 213.39L368.68 213.8C369.33 213.95 369.96 214.16 370.57 214.42C371.18 214.68 371.72 215.01 372.2 215.4C372.68 215.79 373.06 216.27 373.35 216.83C373.63 217.39 373.77 218.04 373.77 218.79C373.77 219.8 373.51 220.7 372.99 221.46C372.47 222.23 371.72 222.83 370.75 223.26C369.77 223.69 368.59 223.91 367.21 223.91C365.83 223.91 364.69 223.7 363.71 223.29C362.73 222.88 361.95 222.26 361.39 221.46C360.84 220.66 360.54 219.69 360.49 218.54H363.57C363.61 219.14 363.8 219.64 364.13 220.04C364.46 220.44 364.88 220.74 365.41 220.94C365.94 221.14 366.53 221.24 367.18 221.24C367.83 221.24 368.46 221.14 368.97 220.93C369.48 220.72 369.89 220.44 370.18 220.07C370.47 219.7 370.62 219.27 370.63 218.77C370.63 218.32 370.49 217.95 370.23 217.65C369.97 217.35 369.61 217.11 369.14 216.91C368.68 216.71 368.13 216.53 367.51 216.37L365.54 215.86C364.11 215.49 362.99 214.94 362.16 214.19C361.34 213.44 360.92 212.45 360.92 211.21C360.92 210.19 361.2 209.3 361.75 208.53C362.3 207.76 363.06 207.17 364.02 206.74C364.98 206.32 366.06 206.1 367.27 206.1C368.48 206.1 369.58 206.31 370.5 206.74C371.43 207.17 372.15 207.75 372.68 208.51C373.21 209.27 373.48 210.13 373.5 211.1H370.48L370.5 211.09Z" fill="#58595B"/>
<path d="M376.54 206.33H380.08L384.31 213.99H384.48L388.71 206.33H392.25L385.95 217.18V223.64H382.82V217.18L376.52 206.33H376.54Z" fill="#58595B"/>
<path d="M405.09 211.09C405.01 210.35 404.68 209.78 404.1 209.37C403.52 208.96 402.76 208.75 401.83 208.75C401.18 208.75 400.62 208.85 400.15 209.05C399.68 209.25 399.32 209.51 399.08 209.85C398.83 210.19 398.7 210.57 398.7 211.01C398.7 211.37 398.78 211.68 398.95 211.95C399.12 212.22 399.34 212.44 399.63 212.62C399.92 212.8 400.24 212.96 400.59 213.08C400.94 213.2 401.29 213.31 401.65 213.39L403.27 213.8C403.92 213.95 404.55 214.16 405.16 214.42C405.77 214.68 406.31 215.01 406.79 215.4C407.27 215.79 407.65 216.27 407.94 216.83C408.22 217.39 408.36 218.04 408.36 218.79C408.36 219.8 408.1 220.7 407.58 221.46C407.06 222.23 406.31 222.83 405.34 223.26C404.36 223.69 403.18 223.91 401.8 223.91C400.42 223.91 399.28 223.7 398.3 223.29C397.32 222.88 396.54 222.26 395.98 221.46C395.43 220.66 395.13 219.69 395.08 218.54H398.16C398.2 219.14 398.39 219.64 398.72 220.04C399.05 220.44 399.47 220.74 400 220.94C400.53 221.14 401.12 221.24 401.77 221.24C402.42 221.24 403.05 221.14 403.56 220.93C404.07 220.72 404.48 220.44 404.77 220.07C405.06 219.7 405.21 219.27 405.22 218.77C405.22 218.32 405.08 217.95 404.82 217.65C404.56 217.35 404.2 217.11 403.73 216.91C403.27 216.71 402.72 216.53 402.1 216.37L400.13 215.86C398.7 215.49 397.58 214.94 396.75 214.19C395.93 213.44 395.51 212.45 395.51 211.21C395.51 210.19 395.79 209.3 396.34 208.53C396.89 207.76 397.65 207.17 398.61 206.74C399.57 206.32 400.65 206.1 401.86 206.1C403.07 206.1 404.17 206.31 405.09 206.74C406.02 207.17 406.74 207.75 407.27 208.51C407.8 209.27 408.07 210.13 408.09 211.1H405.07L405.09 211.09Z" fill="#58595B"/>
<path d="M411.57 208.96V206.33H425.38V208.96H420.03V223.64H416.92V208.96H411.57Z" fill="#58595B"/>
<path d="M429.22 223.64V206.33H440.48V208.96H432.36V213.66H439.9V216.29H432.36V221.01H440.55V223.64H429.22Z" fill="#58595B"/>
<path d="M444.87 206.33H448.71L453.85 218.87H454.05L459.19 206.33H463.03V223.64H460.02V211.75H459.86L455.08 223.59H452.83L448.05 211.72H447.89V223.64H444.88V206.33H444.87Z" fill="#58595B"/>
<path d="M28.13 188.36H1.72998V39.56H28.13V188.36Z" fill="#005399"/>
<path d="M91.52 190.76C62.72 190.76 45.72 171.76 45.72 144.76V85.36H72.12V145.56C72.12 151.36 74.12 165.16 91.52 165.16C103.12 165.16 111.52 156.96 111.52 145.56V85.36H137.92V144.76C137.92 170.96 119.52 190.76 91.52 190.76Z" fill="#005399"/>
<path d="M311.12 188.36H284.72V128.16C284.72 122.36 282.72 108.56 265.32 108.56C253.72 108.56 245.32 116.56 245.32 128.16V188.36H218.92V128.16C218.92 122.36 217.12 108.56 199.72 108.56C187.92 108.56 179.72 116.56 179.72 128.16V188.36H153.32V128.76C153.32 102.56 171.52 82.76 199.72 82.76C213.72 82.76 225.12 88.36 232.52 97.36C240.32 88.36 251.92 82.76 265.32 82.76C294.12 82.76 311.12 101.76 311.12 128.76V188.36Z" fill="#005399"/>
<path d="M355.36 188.36H328.96V85.36H355.36V188.36Z" fill="#005399"/>
<path d="M418.32 85.76V109.16H399.72V188.56H373.32V86.96C373.32 59.56 389.72 39.16 419.32 42.56V67.36C406.72 66.36 399.92 71.56 399.72 85.76H418.32Z" fill="#005399"/>
<path d="M460.44 188.36H434.04V85.36H460.44V188.36Z" fill="#005399"/>
<path d="M342.16 74.78C350.339 74.78 356.97 68.1493 356.97 59.97C356.97 51.7907 350.339 45.16 342.16 45.16C333.981 45.16 327.35 51.7907 327.35 59.97C327.35 68.1493 333.981 74.78 342.16 74.78Z" fill="#009BDF"/>
<path d="M447.24 74.78C455.419 74.78 462.05 68.1493 462.05 59.97C462.05 51.7907 455.419 45.16 447.24 45.16C439.061 45.16 432.43 51.7907 432.43 59.97C432.43 68.1493 439.061 74.78 447.24 74.78Z" fill="#009BDF"/>
<path d="M435.45 40.45C438.89 38.36 442.93 37.16 447.24 37.16C448.79 37.16 450.31 37.32 451.78 37.62C442.52 15.54 420.69 0 395.29 0C369.89 0 348.2 15.44 338.89 37.4C339.96 37.25 341.05 37.16 342.16 37.16C346.85 37.16 351.21 38.58 354.84 41.02C362.28 26.2 377.61 16 395.29 16C412.97 16 427.91 25.94 435.45 40.45Z" fill="#F2BE1A"/>
</g>
<defs>
<clipPath id="clip0_22_40">
<rect width="463.03" height="223.9" fill="white"/>
</clipPath>
</defs>
</svg>