<svg width="85" height="39" viewBox="0 0 85 39" fill="none" xmlns="http://www.w3.org/2000/svg">
<g clip-path="url(#clip0_2625_2806)">
<path d="M1.07758 38.9546H0V35.9395H1.09777C1.41352 35.9395 1.6852 36.0004 1.911 36.1206C2.13863 36.2408 2.31303 36.4132 2.43418 36.6379C2.55718 36.8626 2.61776 37.1309 2.61776 37.4444C2.61776 37.7579 2.55718 38.0279 2.43418 38.2544C2.31119 38.4808 2.13496 38.6533 1.90549 38.7734C1.67603 38.8936 1.39883 38.9546 1.07574 38.9546H1.07758ZM0.576421 38.4826H1.05004C1.27216 38.4826 1.45574 38.4442 1.60443 38.3676C1.75313 38.291 1.86327 38.176 1.93854 38.021C2.0138 37.8677 2.05052 37.6743 2.05052 37.4444C2.05052 37.2145 2.0138 37.0229 1.93854 36.8696C1.86327 36.7163 1.75496 36.6031 1.6081 36.5265C1.46308 36.4498 1.28318 36.4115 1.06656 36.4115H0.576421V38.4808V38.4826Z" fill="#58595B"/>
<path d="M3.3833 38.9546V35.9395H5.45034V36.3976H3.95972V37.2162H5.34386V37.6743H3.95972V38.4965H5.46319V38.9546H3.3833Z" fill="#58595B"/>
<path d="M8.8686 35.9395V38.9546H8.35643L6.85847 36.901H6.83277V38.9546H6.25635V35.9395H6.77219L8.26831 37.9948H8.29585V35.9395H8.8686Z" fill="#58595B"/>
<path d="M9.57129 36.3976V35.9395H12.1064V36.3976H11.1243V38.9546H10.5534V36.3976H9.57129Z" fill="#58595B"/>
<path d="M12.8357 38.9546H12.2207L13.3387 35.9395H14.0491L15.1689 38.9546H14.5539L13.7058 36.5578H13.6819L12.8338 38.9546H12.8357ZM12.8559 37.7736H14.5319V38.2126H12.8559V37.7736Z" fill="#58595B"/>
<path d="M15.8076 38.9546V35.9395H16.384V38.4965H17.7829V38.9546H15.8076Z" fill="#58595B"/>
<path d="M20.3787 35.9395V38.9546H19.8022V35.9395H20.3787Z" fill="#58595B"/>
<path d="M21.2212 35.9395H21.9261L22.8697 38.1237H22.9064L23.85 35.9395H24.5549V38.9546H24.0023V36.8835H23.973L23.0955 38.9459H22.6824L21.805 36.8783H21.7756V38.9546H21.223V35.9395H21.2212Z" fill="#58595B"/>
<path d="M25.3994 38.9546V35.9395H26.5908C26.835 35.9395 27.0406 35.983 27.2058 36.0684C27.371 36.1537 27.4977 36.2739 27.5821 36.4237C27.6665 36.5735 27.7106 36.7459 27.7106 36.9375C27.7106 37.1291 27.6684 37.3033 27.5821 37.4531C27.4958 37.6029 27.3692 37.7214 27.2021 37.8067C27.0351 37.8921 26.8276 37.9356 26.5835 37.9356H25.7941V37.4862H26.5064C26.6495 37.4862 26.7652 37.4636 26.857 37.4148C26.9488 37.3678 27.0149 37.3033 27.0589 37.2197C27.103 37.1378 27.125 37.042 27.125 36.9358C27.125 36.8295 27.103 36.7337 27.0589 36.6536C27.0149 36.5717 26.9469 36.509 26.8552 36.4637C26.7634 36.4185 26.6459 36.3958 26.5027 36.3958H25.9758V38.9546H25.3994Z" fill="#58595B"/>
<path d="M28.4302 38.9546V35.9395H29.0066V38.4965H30.4054V38.9546H28.4302Z" fill="#58595B"/>
<path d="M31.6482 38.9546H31.0332L32.1512 35.9395H32.8616L33.9814 38.9546H33.3664L32.5183 36.5578H32.4944L31.6482 38.9546ZM31.6684 37.7736H33.3444V38.2126H31.6684V37.7736Z" fill="#58595B"/>
<path d="M37.2324 35.9395V38.9546H36.7202L35.2222 36.901H35.1965V38.9546H34.6201V35.9395H35.136L36.6321 37.9948H36.6596V35.9395H37.2324Z" fill="#58595B"/>
<path d="M37.9355 36.3976V35.9395H40.4707V36.3976H39.4886V38.9546H38.9177V36.3976H37.9355Z" fill="#58595B"/>
<path d="M42.479 38.9546V35.9395H43.6704C43.9145 35.9395 44.1202 35.9795 44.2854 36.0596C44.4506 36.1398 44.5772 36.253 44.6617 36.3976C44.7461 36.5421 44.7902 36.7111 44.7902 36.9027C44.7902 37.0943 44.748 37.2633 44.6599 37.4061C44.5717 37.5489 44.4469 37.6569 44.2799 37.7336C44.1128 37.8102 43.9054 37.8485 43.6631 37.8485H42.8149V37.3956H43.586C43.7291 37.3956 43.8448 37.3765 43.9366 37.3382C44.0284 37.2998 44.0945 37.2441 44.1385 37.1709C44.1826 37.0978 44.2046 37.0072 44.2046 36.901C44.2046 36.7947 44.1826 36.7024 44.1385 36.6257C44.0945 36.5491 44.0265 36.4916 43.9347 36.4516C43.843 36.4115 43.7255 36.3923 43.5823 36.3923H43.0536V38.9511H42.479V38.9546ZM44.122 37.589L44.9095 38.9546H44.267L43.4942 37.589H44.122Z" fill="#58595B"/>
<path d="M45.541 38.9546V35.9395H47.6081V36.3976H46.1174V37.2162H47.5016V37.6743H46.1174V38.4965H47.6209V38.9546H45.5429H45.541Z" fill="#58595B"/>
<path d="M51.1327 36.9565H50.5526C50.5361 36.8659 50.5049 36.7858 50.4609 36.7161C50.4168 36.6465 50.3617 36.5855 50.2956 36.5367C50.2296 36.4879 50.1543 36.4514 50.0698 36.4252C49.9854 36.4009 49.8936 36.3869 49.7982 36.3869C49.6256 36.3869 49.4732 36.4287 49.3392 36.5106C49.2052 36.5925 49.1024 36.7126 49.0253 36.8694C48.95 37.0262 48.9115 37.2195 48.9115 37.446C48.9115 37.6724 48.95 37.871 49.0253 38.0277C49.1024 38.1845 49.2052 38.3047 49.3392 38.3831C49.4714 38.4632 49.6238 38.5033 49.7963 38.5033C49.8918 38.5033 49.9799 38.4911 50.0643 38.4667C50.1488 38.4423 50.2222 38.4075 50.2901 38.3604C50.3581 38.3134 50.4131 38.2559 50.459 38.1863C50.5049 38.1183 50.5361 38.0382 50.5545 37.9511L51.1346 37.9546C51.1125 38.0974 51.0667 38.2315 50.9932 38.3587C50.9216 38.4841 50.828 38.5956 50.7124 38.6914C50.5967 38.7872 50.4609 38.8621 50.3067 38.9161C50.1525 38.9701 49.9799 38.9962 49.7908 38.9962C49.5118 38.9962 49.2621 38.9352 49.0437 38.8116C48.8234 38.6879 48.6508 38.512 48.526 38.2803C48.3993 38.0486 48.3369 37.7717 48.3369 37.4477C48.3369 37.1237 48.4012 36.845 48.5278 36.6134C48.6545 36.3817 48.8289 36.2058 49.0473 36.0821C49.2676 35.9602 49.5155 35.8975 49.7927 35.8975C49.9689 35.8975 50.1341 35.9201 50.2865 35.9689C50.4388 36.0176 50.5747 36.0856 50.6922 36.1762C50.8115 36.2667 50.9088 36.3782 50.9859 36.5089C51.063 36.6395 51.1144 36.7893 51.1364 36.9565H51.1327Z" fill="#58595B"/>
<path d="M54.7196 37.4479C54.7196 37.7736 54.6554 38.0506 54.5287 38.2823C54.4002 38.5139 54.2276 38.6899 54.0073 38.8135C53.787 38.9355 53.5392 38.9982 53.2602 38.9982C52.9812 38.9982 52.7333 38.9372 52.513 38.8135C52.2928 38.6899 52.1202 38.5139 51.9917 38.2823C51.8632 38.0506 51.8008 37.7736 51.8008 37.4497C51.8008 37.1257 51.865 36.847 51.9917 36.6153C52.1202 36.3836 52.2928 36.2077 52.513 36.084C52.7333 35.9604 52.9812 35.8994 53.2602 35.8994C53.5392 35.8994 53.787 35.9604 54.0073 36.084C54.2276 36.2077 54.4002 36.3836 54.5287 36.6153C54.6572 36.847 54.7196 37.1239 54.7196 37.4497V37.4479ZM54.1413 37.4479C54.1413 37.2197 54.1028 37.0264 54.0294 36.8679C53.9559 36.7094 53.8513 36.5909 53.7173 36.5108C53.5851 36.4307 53.4328 36.3889 53.2602 36.3889C53.0876 36.3889 52.9353 36.4289 52.8031 36.5108C52.6709 36.5927 52.5663 36.7111 52.4929 36.8679C52.4176 37.0246 52.3809 37.218 52.3809 37.4479C52.3809 37.6778 52.4176 37.8694 52.4929 38.028C52.5681 38.1847 52.6709 38.3049 52.8031 38.385C52.9353 38.4652 53.0876 38.507 53.2602 38.507C53.4328 38.507 53.5851 38.4669 53.7173 38.385C53.8495 38.3049 53.9541 38.1847 54.0294 38.028C54.1046 37.8712 54.1413 37.6778 54.1413 37.4479Z" fill="#58595B"/>
<path d="M55.4852 38.9546V35.9395H56.6766C56.9208 35.9395 57.1264 35.9795 57.2916 36.0596C57.4568 36.1398 57.5835 36.253 57.6679 36.3976C57.7524 36.5421 57.7964 36.7111 57.7964 36.9027C57.7964 37.0943 57.7542 37.2633 57.6661 37.4061C57.578 37.5489 57.4531 37.6569 57.2843 37.7336C57.1172 37.8102 56.9116 37.8485 56.6675 37.8485H55.8193V37.3956H56.5903C56.7335 37.3956 56.8492 37.3765 56.941 37.3382C57.0309 37.2998 57.0988 37.2441 57.1429 37.1709C57.187 37.0978 57.209 37.0072 57.209 36.901C57.209 36.7947 57.187 36.7024 57.1429 36.6257C57.0988 36.5491 57.0309 36.4916 56.9391 36.4516C56.8474 36.4115 56.7317 36.3923 56.5867 36.3923H56.0598V38.9511H55.4834L55.4852 38.9546ZM57.1264 37.589L57.9139 38.9546H57.2714L56.4986 37.589H57.1264Z" fill="#58595B"/>
<path d="M59.623 38.9546H58.5454V35.9395H59.6432C59.9589 35.9395 60.2306 36.0004 60.4564 36.1206C60.684 36.2408 60.8584 36.4132 60.9796 36.6379C61.1007 36.8626 61.1632 37.1309 61.1632 37.4444C61.1632 37.7579 61.1026 38.0279 60.9796 38.2544C60.8566 38.4808 60.6804 38.6533 60.4509 38.7734C60.2214 38.8936 59.9442 38.9546 59.6211 38.9546H59.623ZM59.1218 38.4826H59.5954C59.8176 38.4826 60.0011 38.4442 60.1498 38.3676C60.2967 38.291 60.4087 38.176 60.4839 38.021C60.5592 37.8677 60.5959 37.6743 60.5959 37.4444C60.5959 37.2145 60.5592 37.0229 60.4839 36.8696C60.4105 36.7163 60.3004 36.6031 60.1553 36.5265C60.0103 36.4498 59.8304 36.4115 59.6138 36.4115H59.1237V38.4808L59.1218 38.4826Z" fill="#58595B"/>
<path d="M63.6559 36.7686C63.6412 36.6397 63.5807 36.5404 63.4742 36.469C63.3677 36.3976 63.2282 36.361 63.0575 36.361C62.9382 36.361 62.8354 36.3784 62.7491 36.4133C62.6628 36.4481 62.5967 36.4934 62.5527 36.5526C62.5068 36.6118 62.4829 36.678 62.4829 36.7547C62.4829 36.8174 62.4976 36.8714 62.5288 36.9184C62.56 36.9654 62.6004 37.0037 62.6536 37.0351C62.7069 37.0665 62.7656 37.0943 62.8299 37.1152C62.8941 37.1361 62.9584 37.1553 63.0244 37.1692L63.3218 37.2406C63.4411 37.2668 63.5568 37.3033 63.6688 37.3486C63.7808 37.3939 63.8799 37.4514 63.968 37.5193C64.0561 37.5873 64.1259 37.6709 64.1791 37.7684C64.2305 37.866 64.2562 37.9792 64.2562 38.1098C64.2562 38.2857 64.2085 38.4425 64.113 38.5749C64.0176 38.709 63.8799 38.8135 63.7018 38.8884C63.5219 38.9633 63.3053 39.0016 63.052 39.0016C62.7986 39.0016 62.5894 38.9651 62.4095 38.8937C62.2296 38.8222 62.0864 38.7142 61.9836 38.5749C61.8826 38.4355 61.8275 38.2666 61.8184 38.0663H62.3838C62.3911 38.1708 62.426 38.2579 62.4866 38.3276C62.5471 38.3972 62.6242 38.4495 62.7215 38.4843C62.8188 38.5192 62.9271 38.5366 63.0465 38.5366C63.1658 38.5366 63.2814 38.5192 63.3751 38.4826C63.4687 38.446 63.5439 38.3972 63.5972 38.3328C63.6504 38.2683 63.678 38.1934 63.6798 38.1063C63.6798 38.028 63.6541 37.9635 63.6064 37.9112C63.5586 37.859 63.4925 37.8172 63.4063 37.7824C63.3218 37.7475 63.2209 37.7162 63.107 37.6883L62.7454 37.5995C62.4829 37.535 62.2773 37.4392 62.1249 37.3086C61.9744 37.1779 61.8973 37.0055 61.8973 36.7895C61.8973 36.6118 61.9487 36.4568 62.0497 36.3227C62.1506 36.1886 62.2901 36.0858 62.4664 36.0109C62.6426 35.9377 62.8409 35.8994 63.063 35.8994C63.2851 35.8994 63.487 35.936 63.6559 36.0109C63.8267 36.0858 63.9588 36.1868 64.0561 36.3192C64.1534 36.4516 64.203 36.6014 64.2067 36.7703H63.6523L63.6559 36.7686Z" fill="#58595B"/>
<path d="M68.0138 36.7686C67.9992 36.6397 67.9386 36.5404 67.8321 36.469C67.7256 36.3976 67.5861 36.361 67.4154 36.361C67.2961 36.361 67.1933 36.3784 67.107 36.4133C67.0207 36.4481 66.9546 36.4934 66.9106 36.5526C66.8647 36.6118 66.8408 36.678 66.8408 36.7547C66.8408 36.8174 66.8555 36.8714 66.8867 36.9184C66.9179 36.9654 66.9583 37.0037 67.0115 37.0351C67.0648 37.0665 67.1235 37.0943 67.1878 37.1152C67.252 37.1361 67.3163 37.1553 67.3824 37.1692L67.6797 37.2406C67.7991 37.2668 67.9147 37.3033 68.0267 37.3486C68.1387 37.3939 68.2378 37.4514 68.3259 37.5193C68.414 37.5873 68.4838 37.6709 68.537 37.7684C68.5884 37.866 68.6141 37.9792 68.6141 38.1098C68.6141 38.2857 68.5664 38.4425 68.4709 38.5749C68.3755 38.709 68.2378 38.8135 68.0597 38.8884C67.8798 38.9633 67.6632 39.0016 67.4099 39.0016C67.1566 39.0016 66.9473 38.9651 66.7674 38.8937C66.5875 38.8222 66.4443 38.7142 66.3415 38.5749C66.2405 38.4355 66.1854 38.2666 66.1763 38.0663H66.7417C66.749 38.1708 66.7839 38.2579 66.8445 38.3276C66.9051 38.3972 66.9822 38.4495 67.0795 38.4843C67.1767 38.5192 67.2851 38.5366 67.4044 38.5366C67.5237 38.5366 67.6394 38.5192 67.733 38.4826C67.8266 38.446 67.9019 38.3972 67.9551 38.3328C68.0083 38.2683 68.0359 38.1934 68.0377 38.1063C68.0377 38.028 68.012 37.9635 67.9643 37.9112C67.9166 37.859 67.8505 37.8172 67.7642 37.7824C67.6797 37.7475 67.5788 37.7162 67.465 37.6883L67.1033 37.5995C66.8408 37.535 66.6352 37.4392 66.4828 37.3086C66.3323 37.1779 66.2552 37.0055 66.2552 36.7895C66.2552 36.6118 66.3066 36.4568 66.4076 36.3227C66.5085 36.1886 66.6481 36.0858 66.8243 36.0109C67.0005 35.9377 67.1988 35.8994 67.4209 35.8994C67.643 35.8994 67.845 35.936 68.0138 36.0109C68.1846 36.0858 68.3167 36.1868 68.414 36.3192C68.5113 36.4516 68.5609 36.6014 68.5646 36.7703H68.0102L68.0138 36.7686Z" fill="#58595B"/>
<path d="M69.1228 35.9395H69.7727L70.5492 37.2737H70.5804L71.3569 35.9395H72.0068L70.8502 37.8294V38.9546H70.2757V37.8294L69.1191 35.9395H69.1228Z" fill="#58595B"/>
<path d="M74.3639 36.7686C74.3493 36.6397 74.2887 36.5404 74.1822 36.469C74.0757 36.3976 73.9362 36.361 73.7655 36.361C73.6462 36.361 73.5434 36.3784 73.4571 36.4133C73.3708 36.4481 73.3047 36.4934 73.2607 36.5526C73.2148 36.6118 73.1909 36.678 73.1909 36.7547C73.1909 36.8174 73.2056 36.8714 73.2368 36.9184C73.268 36.9654 73.3084 37.0037 73.3616 37.0351C73.4149 37.0665 73.4736 37.0943 73.5379 37.1152C73.6021 37.1361 73.6664 37.1553 73.7324 37.1692L74.0298 37.2406C74.1492 37.2668 74.2648 37.3033 74.3768 37.3486C74.4888 37.3939 74.5879 37.4514 74.676 37.5193C74.7641 37.5873 74.8339 37.6709 74.8871 37.7684C74.9385 37.866 74.9642 37.9792 74.9642 38.1098C74.9642 38.2857 74.9165 38.4425 74.821 38.5749C74.7256 38.709 74.5879 38.8135 74.4098 38.8884C74.2299 38.9633 74.0133 39.0016 73.76 39.0016C73.5066 39.0016 73.2974 38.9651 73.1175 38.8937C72.9376 38.8222 72.7944 38.7142 72.6916 38.5749C72.5906 38.4355 72.5355 38.2666 72.5264 38.0663H73.0918C73.0991 38.1708 73.134 38.2579 73.1946 38.3276C73.2552 38.3972 73.3323 38.4495 73.4295 38.4843C73.5268 38.5192 73.6351 38.5366 73.7545 38.5366C73.8738 38.5366 73.9894 38.5192 74.0831 38.4826C74.1767 38.446 74.252 38.3972 74.3052 38.3328C74.3584 38.2683 74.386 38.1934 74.3878 38.1063C74.3878 38.028 74.3621 37.9635 74.3144 37.9112C74.2666 37.859 74.2006 37.8172 74.1143 37.7824C74.0298 37.7475 73.9289 37.7162 73.8151 37.6883L73.4534 37.5995C73.1909 37.535 72.9853 37.4392 72.8329 37.3086C72.6824 37.1779 72.6053 37.0055 72.6053 36.7895C72.6053 36.6118 72.6567 36.4568 72.7577 36.3227C72.8586 36.1886 72.9981 36.0858 73.1744 36.0109C73.3506 35.9377 73.5489 35.8994 73.771 35.8994C73.9931 35.8994 74.195 35.936 74.3639 36.0109C74.5347 36.0858 74.6668 36.1868 74.7641 36.3192C74.8614 36.4516 74.911 36.6014 74.9147 36.7703H74.3603L74.3639 36.7686Z" fill="#58595B"/>
<path d="M75.5532 36.3976V35.9395H78.0884V36.3976H77.1063V38.9546H76.5353V36.3976H75.5532Z" fill="#58595B"/>
<path d="M78.7935 38.9546V35.9395H80.8605V36.3976H79.3699V37.2162H80.754V37.6743H79.3699V38.4965H80.8733V38.9546H78.7935Z" fill="#58595B"/>
<path d="M81.6665 35.9395H82.3714L83.315 38.1237H83.3517L84.2953 35.9395H85.0002V38.9546H84.4476V36.8835H84.4183L83.5408 38.9459H83.1277L82.2503 36.8783H82.2209V38.9546H81.6683V35.9395H81.6665Z" fill="#58595B"/>
<path d="M5.16372 32.8093H0.317383V6.89062H5.16372V32.8093Z" fill="#BBBFC2"/>
<path d="M16.8007 33.2273C11.5138 33.2273 8.39307 29.9177 8.39307 25.2147V14.8682H13.2394V25.3541C13.2394 26.3644 13.6066 28.7681 16.8007 28.7681C18.9302 28.7681 20.4722 27.3398 20.4722 25.3541V14.8682H25.3185V25.2147C25.3185 29.7784 21.9408 33.2273 16.8007 33.2273Z" fill="#BBBFC2"/>
<path d="M57.1134 32.8099H52.2671V22.324C52.2671 21.3137 51.8999 18.91 48.7057 18.91C46.5763 18.91 45.0343 20.3035 45.0343 22.324V32.8099H40.1879V22.324C40.1879 21.3137 39.8575 18.91 36.6633 18.91C34.4971 18.91 32.9918 20.3035 32.9918 22.324V32.8099H28.1455V22.4285C28.1455 17.8649 31.4865 14.416 36.6633 14.416C39.2333 14.416 41.3261 15.3915 42.6845 16.9591C44.1164 15.3915 46.2458 14.416 48.7057 14.416C53.9926 14.416 57.1134 17.7255 57.1134 22.4285V32.8099Z" fill="#BBBFC2"/>
<path d="M65.2345 32.8092H60.3882V14.8682H65.2345V32.8092Z" fill="#BBBFC2"/>
<path d="M76.7925 14.938V19.0139H73.3781V32.8442H68.5317V15.147C68.5317 10.3743 71.5423 6.82097 76.9761 7.41319V11.733C74.6631 11.5588 73.4148 12.4646 73.3781 14.938H76.7925Z" fill="#BBBFC2"/>
<path d="M84.5246 32.8092H79.6782V14.8682H84.5246V32.8092Z" fill="#BBBFC2"/>
<path d="M62.8115 13.0256C64.313 13.0256 65.5302 11.8706 65.5302 10.4459C65.5302 9.02117 64.313 7.86621 62.8115 7.86621C61.31 7.86621 60.0928 9.02117 60.0928 10.4459C60.0928 11.8706 61.31 13.0256 62.8115 13.0256Z" fill="#BBBFC2"/>
<path d="M82.1015 13.0256C83.603 13.0256 84.8203 11.8706 84.8203 10.4459C84.8203 9.02117 83.603 7.86621 82.1015 7.86621C80.6 7.86621 79.3828 9.02117 79.3828 10.4459C79.3828 11.8706 80.6 13.0256 82.1015 13.0256Z" fill="#BBBFC2"/>
<path d="M79.9373 7.04578C80.5688 6.68173 81.3104 6.47271 82.1016 6.47271C82.3861 6.47271 82.6652 6.50058 82.935 6.55284C81.2351 2.70683 77.2277 0 72.565 0C67.9022 0 63.9205 2.68942 62.2114 6.51452C62.4078 6.48839 62.6079 6.47271 62.8117 6.47271C63.6727 6.47271 64.473 6.72005 65.1394 7.14506C66.5052 4.56364 69.3194 2.78696 72.565 2.78696C75.8105 2.78696 78.5531 4.51836 79.9373 7.04578Z" fill="#BBBFC2"/>
</g>
<defs>
<clipPath id="clip0_2625_2806">
<rect width="85" height="39" fill="white"/>
</clipPath>
</defs>
</svg>
