<svg width="14" height="19" viewBox="0 0 14 19" fill="none" xmlns="http://www.w3.org/2000/svg">
<path d="M11.75 2.5C12.9805 2.5 14 3.51953 14 4.75V16C14 17.2656 12.9805 18.25 11.75 18.25H2.75C1.48438 18.25 0.5 17.2656 0.5 16V4.75C0.5 3.51953 1.48438 2.5 2.75 2.5H4.15625H4.47266C4.75391 1.23438 5.87891 0.25 7.25 0.25C8.58594 0.25 9.74609 1.23438 9.99219 2.5H10.3438H11.75ZM3.3125 4.1875H2.75C2.43359 4.1875 2.1875 4.46875 2.1875 4.75V16C2.1875 16.3164 2.43359 16.5625 2.75 16.5625H3.3125C3.3125 15.0156 4.54297 13.75 6.125 13.75H8.375C9.92188 13.75 11.1875 15.0156 11.1875 16.5625H11.75C12.0312 16.5625 12.3125 16.3164 12.3125 16V4.75C12.3125 4.46875 12.0312 4.1875 11.75 4.1875H11.1875V5.03125C11.1875 5.52344 10.8008 5.875 10.3438 5.875H7.25H4.15625C3.66406 5.875 3.3125 5.52344 3.3125 5.03125V4.1875ZM6.40625 3.0625C6.40625 3.55469 6.75781 3.90625 7.25 3.90625C7.70703 3.90625 8.09375 3.55469 8.09375 3.0625C8.09375 2.60547 7.70703 2.21875 7.25 2.21875C6.75781 2.21875 6.40625 2.60547 6.40625 3.0625ZM9.5 10.375C9.5 11.1836 9.04297 11.9219 8.375 12.3438C7.67188 12.7305 6.79297 12.7305 6.125 12.3438C5.42188 11.9219 5 11.1836 5 10.375C5 9.60156 5.42188 8.86328 6.125 8.44141C6.79297 8.05469 7.67188 8.05469 8.375 8.44141C9.04297 8.86328 9.5 9.60156 9.5 10.375Z" fill="#009BDF"/>
</svg>
