<svg width="20" height="19" viewBox="0 0 20 19" fill="none" xmlns="http://www.w3.org/2000/svg">
<path d="M2.26562 12.9414C2.37109 12.5898 2.54688 12.2383 2.75781 11.957V11.9219H2.79297C2.86328 11.8164 2.96875 11.7109 3.03906 11.6406L13.7266 0.953125C14.6055 0.0742188 16.0469 0.0742188 16.9258 0.953125L18.2969 2.32422C18.4023 2.42969 18.5078 2.57031 18.5781 2.67578C19.1758 3.55469 19.0703 4.75 18.2969 5.52344L7.60938 16.2109C7.57422 16.2461 7.50391 16.2812 7.46875 16.3516C7.43359 16.3867 7.36328 16.4219 7.32812 16.457V16.4922H7.29297C7.01172 16.7031 6.66016 16.8789 6.30859 16.9844L3.56641 17.793L2.05469 18.25C1.77344 18.3203 1.45703 18.25 1.24609 18.0039C1 17.793 0.929688 17.4766 1.03516 17.1953L1.45703 15.6836L2.26562 12.9414ZM14.4648 6.96484L12.2852 4.78516L5.74609 11.3242L6.16797 13.082L7.92578 13.5039L14.4648 6.96484ZM4.41016 12.8711L3.98828 13.1523C3.95312 13.2227 3.91797 13.3281 3.88281 13.4336L3.63672 14.2422L3.07422 16.1758L5.00781 15.6133L5.81641 15.3672C5.92188 15.332 6.02734 15.2969 6.09766 15.2617L6.37891 14.875L5.28906 14.5938C4.97266 14.5234 4.72656 14.2773 4.65625 13.9609L4.41016 12.8711ZM12.0742 7.94922L8.69922 11.3242C8.48828 11.5352 8.10156 11.5352 7.89062 11.3242C7.67969 11.1133 7.67969 10.7617 7.89062 10.5508L11.2656 7.17578C11.4766 6.92969 11.8633 6.92969 12.0742 7.17578C12.2852 7.38672 12.2852 7.73828 12.0742 7.94922Z" fill="#009BDF"/>
</svg>
