<svg width="15" height="16" viewBox="0 0 15 16" fill="none" xmlns="http://www.w3.org/2000/svg">
<path d="M8.21875 1.78125V7.40625H13.8438C14.3008 7.40625 14.6875 7.79297 14.6875 8.25C14.6875 8.74219 14.3008 9.09375 13.8438 9.09375H8.21875V14.7188C8.21875 15.2109 7.83203 15.5625 7.375 15.5625C6.88281 15.5625 6.53125 15.2109 6.53125 14.7188V9.09375H0.90625C0.414062 9.09375 0.0625 8.74219 0.0625 8.25C0.0625 7.79297 0.414062 7.40625 0.90625 7.40625H6.53125V1.78125C6.53125 1.32422 6.88281 0.9375 7.375 0.9375C7.83203 0.9375 8.21875 1.32422 8.21875 1.78125Z" fill="white"/>
</svg>
