<svg width="21" height="18" viewBox="0 0 21 18" fill="none" xmlns="http://www.w3.org/2000/svg">
  <path d="M10 2.5C7.9375 2.5 6.28125 3.4375 5 4.625C3.78125 5.75 2.96875 7.0625 2.53125 8C2.96875 8.9375 3.78125 10.2812 5 11.4062C6.28125 12.5938 7.9375 13.5 10 13.5C12.0312 13.5 13.6875 12.5938 14.9688 11.4062C16.1875 10.2812 17.0312 8.9375 17.4375 8C17.0312 7.0625 16.1875 5.75 15 4.625C13.6875 3.4375 12.0312 2.5 10 2.5ZM3.96875 3.53125C5.4375 2.15625 7.46875 1 10 1C12.5 1 14.5312 2.15625 16 3.53125C17.4688 4.90625 18.4375 6.5 18.9062 7.625C19 7.875 19 8.15625 18.9062 8.40625C18.4375 9.5 17.4688 11.125 16 12.5C14.5312 13.875 12.5 15 10 15C7.46875 15 5.4375 13.875 3.96875 12.5C2.5 11.125 1.53125 9.5 1.0625 8.40625C0.96875 8.15625 0.96875 7.875 1.0625 7.625C1.53125 6.5 2.5 4.875 3.96875 3.53125ZM10 10.5C11.375 10.5 12.5 9.40625 12.5 8C12.5 6.625 11.375 5.5 10 5.5C9.96875 5.5 9.9375 5.5 9.9375 5.5C9.96875 5.6875 10 5.84375 10 6C10 7.125 9.09375 8 8 8C7.8125 8 7.65625 8 7.5 7.9375C7.5 7.96875 7.5 8 7.5 8C7.5 9.40625 8.59375 10.5 10 10.5ZM10 4C11.4062 4 12.7188 4.78125 13.4375 6C14.1562 7.25 14.1562 8.78125 13.4375 10C12.7188 11.25 11.4062 12 10 12C8.5625 12 7.25 11.25 6.53125 10C5.8125 8.78125 5.8125 7.25 6.53125 6C7.25 4.78125 8.5625 4 10 4Z" fill="#4E5053"/>
</svg>
