<svg width="15" height="14" viewBox="0 0 15 14" fill="none" xmlns="http://www.w3.org/2000/svg">
<path d="M1.3125 1.28125V5.875C1.3125 6.50391 1.77734 6.96875 2.40625 6.96875H11.7578L9.37891 4.58984C9.10547 4.34375 9.10547 3.93359 9.37891 3.66016C9.625 3.41406 10.0352 3.41406 10.3086 3.66016L13.8086 7.1875C14.0547 7.43359 14.0547 7.84375 13.8086 8.08984L10.3086 11.5898C10.0352 11.8633 9.625 11.8633 9.37891 11.5898C9.10547 11.3438 9.10547 10.9336 9.37891 10.6602L11.7578 8.28125H2.40625C1.06641 8.28125 0 7.21484 0 5.875V1.28125C0 0.925781 0.273438 0.625 0.65625 0.625C1.01172 0.625 1.3125 0.925781 1.3125 1.28125Z" fill="#84888C"/>
</svg>
