<svg width="16" height="17" viewBox="0 0 16 17" fill="none" xmlns="http://www.w3.org/2000/svg">
<path d="M2.375 4.8125C2.375 5.23438 2.44531 5.69141 2.65625 6.07812L3.25391 7.27344C3.57031 7.90625 3.78125 8.53906 3.92188 9.24219L5.01172 14.9023C5.01172 14.9375 5.04688 14.9375 5.04688 14.9375C5.08203 14.9375 5.08203 14.9375 5.11719 14.9375L6.10156 11.3164C6.34766 10.4727 7.12109 9.875 8 9.875C8.87891 9.875 9.61719 10.4727 9.86328 11.3164L10.8828 14.9375C10.8828 14.9375 10.8828 14.9375 10.918 14.9375C10.918 14.9375 10.9531 14.9375 10.9531 14.9023L12.043 9.24219C12.1836 8.53906 12.3945 7.90625 12.7109 7.27344L13.2383 6.21875C13.4844 5.72656 13.625 5.19922 13.625 4.63672C13.625 3.51172 12.6758 2.5625 11.5508 2.5625H11.1641C10.6016 2.5625 10.0391 2.77344 9.58203 3.16016L9.33594 3.37109L9.61719 3.58203C10.0039 3.86328 10.0742 4.39062 9.79297 4.77734C9.51172 5.12891 8.98438 5.23438 8.59766 4.95312L7.47266 4.10938L6.34766 3.26562L6.06641 3.05469C5.67969 2.73828 5.1875 2.5625 4.69531 2.5625H4.58984C3.35938 2.5625 2.375 3.58203 2.375 4.8125ZM7.96484 2.35156L8.49219 1.89453C9.23047 1.22656 10.1797 0.875 11.1641 0.875H11.5508C13.625 0.875 15.3125 2.5625 15.3125 4.63672C15.3125 5.44531 15.1016 6.25391 14.75 6.95703L14.2227 8.04688C13.9766 8.50391 13.8008 9.03125 13.6953 9.55859L12.6055 15.2539C12.4648 16.0625 11.7266 16.625 10.918 16.625C10.1445 16.625 9.44141 16.1328 9.23047 15.3594L8.24609 11.7734C8.21094 11.668 8.10547 11.5625 8 11.5625C7.85938 11.5625 7.75391 11.668 7.71875 11.7734L6.73438 15.3594C6.52344 16.1328 5.85547 16.625 5.04688 16.625C4.23828 16.625 3.53516 16.0625 3.35938 15.2539L2.26953 9.55859C2.16406 9.03125 1.98828 8.50391 1.74219 8.04688L1.14453 6.81641C0.828125 6.18359 0.6875 5.51562 0.6875 4.8125C0.6875 2.63281 2.41016 0.875 4.58984 0.875H4.69531C5.53906 0.875 6.38281 1.15625 7.08594 1.68359L7.36719 1.89453L7.96484 2.35156Z" fill="#84888C"/>
</svg>
