<svg width="17" height="19" viewBox="0 0 17 19" fill="none" xmlns="http://www.w3.org/2000/svg">
<path d="M6.72266 1.9375C6.61719 1.9375 6.54688 2.00781 6.47656 2.07812L5.80859 3.0625H10.9062L10.2383 2.07812C10.2031 2.00781 10.0977 1.9375 9.99219 1.9375H6.72266ZM12.9453 3.0625H13.4023H15.125H15.4062C15.8633 3.0625 16.25 3.44922 16.25 3.90625C16.25 4.39844 15.8633 4.75 15.4062 4.75H14.9844L14.1406 16.1758C14.0352 17.3711 13.0859 18.25 11.8906 18.25H4.82422C3.62891 18.25 2.67969 17.3711 2.57422 16.1758L1.73047 4.75H1.34375C0.851562 4.75 0.5 4.39844 0.5 3.90625C0.5 3.44922 0.851562 3.0625 1.34375 3.0625H1.625H3.3125H3.76953L5.07031 1.12891C5.42188 0.601562 6.05469 0.25 6.72266 0.25H9.99219C10.6602 0.25 11.293 0.601562 11.6445 1.12891L12.9453 3.0625ZM13.2969 4.75H3.41797L4.26172 16.0703C4.29688 16.3516 4.54297 16.5625 4.82422 16.5625H11.8906C12.1719 16.5625 12.418 16.3516 12.4531 16.0703L13.2969 4.75Z" fill="white"/>
</svg>
