<svg width="34" height="32" viewBox="0 0 34 32" fill="none" xmlns="http://www.w3.org/2000/svg">
<path d="M26.375 25C28.625 22.6875 30 19.5 30 16C30 8.875 24.125 3 17 3C9.8125 3 4 8.875 4 16C4 19.5 5.3125 22.6875 7.5625 25C8.75 22.0625 11.625 20 15 20H19C22.3125 20 25.1875 22.0625 26.375 25ZM23.875 27.0625C23.4375 24.75 21.375 23 19 23H15C12.5625 23 10.5 24.75 10.0625 27.0625C12.0625 28.3125 14.4375 29 17 29C19.5 29 21.875 28.3125 23.875 27.0625ZM17 32C11.25 32 6 29 3.125 24C0.25 19.0625 0.25 13 3.125 8C6 3.0625 11.25 0 17 0C22.6875 0 27.9375 3.0625 30.8125 8C33.6875 13 33.6875 19.0625 30.8125 24C27.9375 29 22.6875 32 17 32ZM17 15C17.875 15 18.6875 14.5625 19.125 13.75C19.5625 13 19.5625 12.0625 19.125 11.25C18.6875 10.5 17.875 10 17 10C16.0625 10 15.25 10.5 14.8125 11.25C14.375 12.0625 14.375 13 14.8125 13.75C15.25 14.5625 16.0625 15 17 15ZM11.5 12.5C11.5 10.5625 12.5 8.75 14.25 7.75C15.9375 6.8125 18 6.8125 19.75 7.75C21.4375 8.75 22.5 10.5625 22.5 12.5C22.5 14.5 21.4375 16.3125 19.75 17.3125C18 18.25 15.9375 18.25 14.25 17.3125C12.5 16.3125 11.5 14.5 11.5 12.5Z" fill="#009BDF"/>
</svg>
